<?xml version="1.0" encoding="UTF-8"?><svg id="Layer_1" xmlns="http://www.w3.org/2000/svg" viewBox="0 0 785.32 125.87"><path d="M760.15,124.71h25.17l-40.4-51.33,36.92-37.09h-24.83l-42.88,39.74V1.86h-20.7v122.85h20.7v-23.34l15.4-14.57,30.63,37.91ZM638.63,125.87c17.22,0,30.96-7.45,37.75-20.7l-15.89-9.27c-5.3,8.44-13.25,12.25-22.02,12.25-15.23,0-26.82-10.43-26.82-27.65s11.59-27.65,26.82-27.65c8.77,0,16.72,3.81,22.02,12.25l15.89-9.27c-6.79-13.41-20.53-20.53-37.75-20.53-27.98,0-47.85,18.71-47.85,45.2s19.87,45.37,47.85,45.37ZM531.01,108.15c-14.9,0-26.16-10.76-26.16-27.65s11.26-27.65,26.16-27.65,26.32,10.76,26.32,27.65-11.26,27.65-26.32,27.65ZM531.01,125.87c27.48,0,47.19-18.87,47.19-45.37s-19.7-45.2-47.19-45.2-47.02,18.71-47.02,45.2,19.87,45.37,47.02,45.37ZM443.1,49.21v-12.91h-19.7v88.41h20.7v-42.88c0-18.05,9.93-27.32,25.66-27.32,1.49,0,2.98.17,4.8.5v-19.7c-14.74,0-25.5,4.64-31.46,13.91ZM408.16,124.71l-34.6-45.2,33.11-43.21h-22.35l-21.69,28.97-21.69-28.97h-23.01l32.95,43.54-34.44,44.87h22.85l22.85-30.63,22.68,30.63h23.34ZM258.99,110.8c-10.6,0-16.89-4.8-16.89-12.25,0-6.46,3.81-11.75,17.88-11.75h21.36v10.26c-3.48,9.11-12.25,13.74-22.35,13.74ZM261.8,35.3c-14.24,0-27.98,3.64-37.42,10.93l8.11,15.07c6.62-5.46,16.89-8.78,26.82-8.78,14.73,0,22.02,7.12,22.02,19.21v1.32h-22.85c-26.82,0-36.76,11.59-36.76,26.33s12.75,26.49,32.95,26.49c13.25,0,22.85-4.3,27.82-11.92v10.76h19.54v-51.82c0-25.5-14.74-37.58-40.23-37.58ZM205.18,105.17c-3.15,2.48-7.28,3.64-11.59,3.64-7.95,0-12.25-4.64-12.25-13.25v-42.05h23.68v-16.56h-23.68v-20.2h-20.7v20.2h-14.57v16.56h14.57v42.55c0,19.54,11.09,29.8,30.46,29.8,7.45,0,14.9-1.99,19.87-5.96l-5.79-14.73Z" fill="#051329"/><path d="M25.63,33.1L59.27,0H5.18C2.82,0,.78,1.65.17,3.91c-.44,1.66-.04,3.7,1.2,4.93l15.81,15.81,4.83,4.84,3.61,3.61Z" fill="#f3c260" fill-rule="evenodd"/><path d="M76.96,51.94c-3.47,11.75-.41,24.41,7.92,33.27,3.26-3.5,7.23-7.23,10.63-10.63,8.19-8.19,12.8-19.3,12.8-30.89,0-6.74-1.53-13.13-4.26-18.83l-27.09,27.09Z" fill="#35a4ff" fill-rule="evenodd"/><path d="M84.79,84.54c-8.27,8.86-11.35,21.42-8.06,33.14l2.01,2.01c3.23,3.23,6.4,4.9,11.1,5.02h25.73c1.39-.04,2.66-.8,3.36-2.01.81-1.4.76-3.26-.41-4.44l-33.73-33.73Z" fill="#015cbe" fill-rule="evenodd"/><path d="M25.62,33.15c11.05,11.45,10.49,30.26-.59,41.69l21.17-21.17L91.01,8.86c-2.35-1.77-4.88-3.32-7.56-4.61-5.71-2.73-12.09-4.25-18.84-4.25h-5.94L25.58,33.1l.05.05Z" fill="#ee4a62" fill-rule="evenodd"/><path d="M65.04,105.05l-10.28-10.28c-2.7-2.75-4.23-6.46-4.23-10.35,0-3.51,1.25-6.88,3.48-9.52l-24.54,24.53-21.59,21.61c2.21,2.21,5.16,3.51,8.26,3.67h23.34c3.84-.11,7.5-1.65,10.25-4.34l15.31-15.32Z" fill="#0881ff" fill-rule="evenodd"/><path d="M33.94,53.17c-.13-7.51-3.1-14.67-8.29-20.05l-.05-.05-13.48,13.48c-4.95,5.06-7.78,11.81-7.94,18.86v30.27l21.32-21.32-.04.04.07-.07.07-.07c5.47-5.65,8.47-13.24,8.34-21.1" fill="#4f00c3" fill-rule="evenodd"/><path d="M77.11,118.06c-3.29-11.72-.21-24.28,8.06-33.14-8.33-8.86-11.39-21.52-7.92-33.27l-23.72,23.71c-2.23,2.64-3.48,6.01-3.48,9.52,0,3.89,1.53,7.6,4.24,10.35l10.28,10.28,12.54,12.55Z" fill="#0072e1" fill-rule="evenodd"/></svg>